<?xml version="1.0" standalone="no"?>
<!DOCTYPE svg PUBLIC "-//W3C//DTD SVG 20010904//EN"
 "http://www.w3.org/TR/2001/REC-SVG-20010904/DTD/svg10.dtd">
<svg version="1.0" xmlns="http://www.w3.org/2000/svg"
 width="256.000000pt" height="256.000000pt" viewBox="0 0 256.000000 256.000000"
 preserveAspectRatio="xMidYMid meet">

<g transform="translate(0.000000,256.000000) scale(0.100000,-0.100000)"
fill="#000000" stroke="none">
<path d="M885 2411 c-22 -10 -47 -27 -56 -37 -22 -26 -159 -252 -159 -262 0
-5 12 -15 28 -23 15 -8 65 -36 112 -63 130 -74 168 -95 232 -129 36 -19 57
-36 54 -44 -13 -33 9 -1 99 142 l97 155 -50 78 c-61 92 -133 165 -184 187 -50
20 -124 19 -173 -4z"/>
<path d="M747 1933 l82 -4 31 -54 c42 -73 48 -70 10 5 l-30 60 -88 -2 -87 -2
82 -3z"/>
<path d="M1806 1775 c-60 -41 -119 -75 -130 -77 -12 -2 29 -17 89 -34 l110
-31 22 75 c27 95 36 142 26 141 -4 0 -57 -34 -117 -74z"/>
<path d="M1130 1769 c0 -30 -52 -119 -69 -119 -5 0 -11 -9 -14 -19 -4 -17 -38
-38 -91 -55 -10 -3 -16 -12 -13 -19 3 -7 -3 -28 -13 -47 l-18 -34 31 -38 c34
-42 34 -40 -15 -181 -12 -32 -19 -59 -17 -60 2 -1 21 -10 42 -20 21 -9 46 -32
58 -51 26 -44 82 -72 114 -58 28 13 41 62 24 90 -10 16 -10 23 0 36 10 12 10
19 -3 38 -19 27 -20 57 -2 81 17 22 22 21 45 -2 10 -10 27 -23 37 -29 13 -7
17 -21 16 -57 -3 -64 4 -82 33 -89 14 -4 25 -12 25 -20 0 -7 6 -19 14 -25 8
-7 18 -26 21 -42 5 -20 12 -29 23 -28 10 1 28 -2 42 -8 79 -34 133 -52 142
-47 5 3 13 15 17 26 7 19 7 19 34 -2 l27 -21 40 28 c23 16 51 48 64 73 21 41
23 53 17 145 -5 86 -9 100 -24 103 -10 2 -27 -4 -38 -14 -17 -15 -24 -16 -54
-5 -19 7 -39 9 -45 6 -22 -14 -48 6 -55 41 -3 21 -20 50 -40 69 -18 19 -36 44
-40 57 -4 13 -14 31 -22 40 -12 13 -13 23 -4 50 10 31 24 101 25 123 1 6 -20
9 -50 7 -35 -3 -63 2 -85 14 -19 9 -47 20 -64 24 -19 4 -31 13 -33 25 -5 26
-30 45 -59 45 -19 0 -23 -5 -23 -31z"/>
<path d="M613 1718 c-57 -17 -103 -34 -103 -38 0 -3 19 -15 43 -25 132 -58
212 -98 219 -108 4 -7 8 -8 8 -3 0 17 -55 206 -60 205 -3 -1 -51 -15 -107 -31z"/>
<path d="M1605 1740 c-11 -5 -36 -7 -55 -4 -26 3 -30 2 -15 -4 30 -13 81 -25
73 -16 -4 4 0 13 10 20 19 15 16 16 -13 4z"/>
<path d="M2018 1538 l-35 -63 -74 -6 -74 -5 80 -2 80 -1 32 69 c18 39 30 70
28 70 -2 0 -19 -28 -37 -62z"/>
<path d="M781 1514 c0 -11 3 -14 6 -6 3 7 2 16 -1 19 -3 4 -6 -2 -5 -13z"/>
<path d="M2103 1462 c-215 -141 -289 -186 -305 -186 -18 0 -9 -18 108 -221
l52 -90 59 3 c175 10 273 45 322 115 35 52 52 109 44 151 -9 47 -154 297 -171
295 -4 0 -53 -31 -109 -67z"/>
<path d="M791 1481 c-1 -8 -8 -11 -18 -7 -15 5 -15 3 2 -9 10 -8 25 -28 31
-43 7 -15 12 -20 12 -12 0 20 -26 89 -27 71z"/>
<path d="M548 893 c-81 -177 -81 -278 1 -366 48 -53 66 -57 246 -57 91 0 164
3 162 8 -3 4 -8 110 -12 236 -4 126 -9 235 -12 242 -3 7 5 14 19 17 13 2 -64
5 -170 6 l-193 1 -41 -87z"/>
<path d="M1445 918 c-28 -29 -43 -47 -35 -40 20 17 28 15 33 -10 3 -19 5 -18
6 6 0 16 12 44 27 63 36 47 26 41 -31 -19z"/>
<path d="M1305 779 l-77 -81 80 -81 c45 -45 84 -79 87 -76 3 4 -1 68 -9 144
-10 92 -11 145 -5 157 5 10 8 18 6 18 -3 0 -39 -37 -82 -81z"/>
<path d="M1046 771 c-20 -32 -36 -62 -36 -67 0 -9 71 -114 77 -114 5 0 2 4
-39 69 l-28 45 36 63 c44 79 37 83 -10 4z"/>
</g>
</svg>
