<?xml version="1.0" standalone="no"?>
<!DOCTYPE svg PUBLIC "-//W3C//DTD SVG 20010904//EN"
 "http://www.w3.org/TR/2001/REC-SVG-20010904/DTD/svg10.dtd">
<svg version="1.0" xmlns="http://www.w3.org/2000/svg"
 width="264.000000pt" height="264.000000pt" viewBox="0 0 264.000000 264.000000"
 preserveAspectRatio="xMidYMid meet">

<g transform="translate(0.000000,264.000000) scale(0.100000,-0.100000)"
fill="#000000" stroke="none">
<path d="M320 2040 l0 -280 280 0 280 0 0 280 0 280 -280 0 -280 0 0 -280z
m480 0 l0 -200 -200 0 -200 0 0 200 0 200 200 0 200 0 0 -200z"/>
<path d="M480 2040 l0 -120 120 0 120 0 0 120 0 120 -120 0 -120 0 0 -120z"/>
<path d="M1040 2280 l0 -40 80 0 80 0 0 -120 0 -120 -40 0 -40 0 0 40 0 40
-40 0 -40 0 0 -40 0 -40 40 0 40 0 0 -40 0 -40 -80 0 -80 0 0 -80 0 -80 40 0
40 0 0 40 0 40 40 0 40 0 0 -80 0 -80 -80 0 -80 0 0 -80 0 -80 40 0 40 0 0
-40 0 -40 -80 0 -80 0 0 40 0 40 -40 0 -40 0 0 40 0 40 40 0 40 0 0 40 0 40
-80 0 -80 0 0 -40 0 -40 -40 0 -40 0 0 40 0 40 -40 0 -40 0 0 -40 0 -40 -80 0
-80 0 0 40 0 40 -40 0 -40 0 0 -40 0 -40 40 0 40 0 0 -40 0 -40 -40 0 -40 0 0
-40 0 -40 40 0 40 0 0 -40 0 -40 -40 0 -40 0 0 -80 0 -80 40 0 40 0 0 -40 0
-40 -40 0 -40 0 0 -40 0 -40 40 0 40 0 0 40 0 40 40 0 40 0 0 -80 0 -80 240 0
240 0 0 -40 0 -40 40 0 40 0 0 -40 0 -40 -40 0 -40 0 0 -40 0 -40 40 0 40 0 0
-40 0 -40 -40 0 -40 0 0 -40 0 -40 40 0 40 0 0 -80 0 -80 -40 0 -40 0 0 -40 0
-40 40 0 40 0 0 40 0 40 40 0 40 0 0 -40 0 -40 160 0 160 0 0 80 0 80 -80 0
-80 0 0 -40 0 -40 -40 0 -40 0 0 40 0 40 -40 0 -40 0 0 40 0 40 -40 0 -40 0 0
40 0 40 80 0 80 0 0 40 0 40 -40 0 -40 0 0 40 0 40 40 0 40 0 0 80 0 80 80 0
80 0 0 -80 0 -80 -40 0 -40 0 0 -80 0 -80 120 0 120 0 0 80 0 80 40 0 40 0 0
-80 0 -80 120 0 120 0 0 -80 0 -80 80 0 80 0 0 -40 0 -40 40 0 40 0 0 40 0 40
40 0 40 0 0 80 0 80 40 0 40 0 0 40 0 40 -40 0 -40 0 0 40 0 40 80 0 80 0 0
80 0 80 -40 0 -40 0 0 -40 0 -40 -40 0 -40 0 0 -40 0 -40 -40 0 -40 0 0 80 0
80 40 0 40 0 0 40 0 40 40 0 40 0 0 40 0 40 40 0 40 0 0 120 0 120 -80 0 -80
0 0 -40 0 -40 -40 0 -40 0 0 40 0 40 -40 0 -40 0 0 40 0 40 -40 0 -40 0 0 -40
0 -40 40 0 40 0 0 -80 0 -80 -40 0 -40 0 0 40 0 40 -40 0 -40 0 0 40 0 40 -40
0 -40 0 0 40 0 40 -40 0 -40 0 0 40 0 40 80 0 80 0 0 40 0 40 40 0 40 0 0 40
0 40 -40 0 -40 0 0 -40 0 -40 -40 0 -40 0 0 40 0 40 -40 0 -40 0 0 80 0 80
-40 0 -40 0 0 40 0 40 40 0 40 0 0 80 0 80 -80 0 -80 0 0 40 0 40 40 0 40 0 0
80 0 80 -40 0 -40 0 0 -80 0 -80 -40 0 -40 0 0 -80 0 -80 -40 0 -40 0 0 -40 0
-40 -40 0 -40 0 0 80 0 80 40 0 40 0 0 40 0 40 -40 0 -40 0 0 80 0 80 -120 0
-120 0 0 -40z m480 -320 l0 -40 -40 0 -40 0 0 -120 0 -120 -40 0 -40 0 0 -80
0 -80 -40 0 -40 0 0 -120 0 -120 -40 0 -40 0 0 80 0 80 -40 0 -40 0 0 -40 0
-40 -40 0 -40 0 0 40 0 40 40 0 40 0 0 40 0 40 -40 0 -40 0 0 40 0 40 80 0 80
0 0 120 0 120 -40 0 -40 0 0 40 0 40 80 0 80 0 0 -80 0 -80 40 0 40 0 0 80 0
80 40 0 40 0 0 40 0 40 40 0 40 0 0 -40z m80 -200 l0 -80 -40 0 -40 0 0 80 0
80 40 0 40 0 0 -80z m0 -240 l0 -80 -40 0 -40 0 0 -40 0 -40 80 0 80 0 0 -40
0 -40 40 0 40 0 0 -40 0 -40 -80 0 -80 0 0 -40 0 -40 40 0 40 0 0 -40 0 -40
-80 0 -80 0 0 -40 0 -40 -80 0 -80 0 0 40 0 40 40 0 40 0 0 40 0 40 40 0 40 0
0 40 0 40 -40 0 -40 0 0 40 0 40 40 0 40 0 0 40 0 40 -40 0 -40 0 0 120 0 120
80 0 80 0 0 -80z m-1040 -40 l0 -40 -80 0 -80 0 0 40 0 40 80 0 80 0 0 -40z
m240 0 l0 -40 40 0 40 0 0 -40 0 -40 -40 0 -40 0 0 40 0 40 -80 0 -80 0 0 40
0 40 80 0 80 0 0 -40z m-320 -160 l0 -40 40 0 40 0 0 -40 0 -40 40 0 40 0 0
40 0 40 160 0 160 0 0 -40 0 -40 -120 0 -120 0 0 -40 0 -40 80 0 80 0 0 -40 0
-40 -120 0 -120 0 0 40 0 40 -40 0 -40 0 0 40 0 40 -40 0 -40 0 0 40 0 40 -40
0 -40 0 0 40 0 40 40 0 40 0 0 -40z m640 -80 l0 -40 80 0 80 0 0 -80 0 -80
-40 0 -40 0 0 40 0 40 -80 0 -80 0 0 80 0 80 40 0 40 0 0 -40z m1120 -40 l0
-80 -40 0 -40 0 0 -40 0 -40 -80 0 -80 0 0 80 0 80 40 0 40 0 0 -40 0 -40 40
0 40 0 0 80 0 80 40 0 40 0 0 -80z m-320 -120 l0 -40 -40 0 -40 0 0 40 0 40
40 0 40 0 0 -40z m0 -240 l0 -120 -120 0 -120 0 0 120 0 120 120 0 120 0 0
-120z m-480 -80 l0 -40 -40 0 -40 0 0 40 0 40 40 0 40 0 0 -40z m720 -80 l0
-40 -40 0 -40 0 0 40 0 40 40 0 40 0 0 -40z m-80 -160 l0 -40 -40 0 -40 0 0
40 0 40 40 0 40 0 0 -40z"/>
<path d="M1200 1560 l0 -40 40 0 40 0 0 40 0 40 -40 0 -40 0 0 -40z"/>
<path d="M1760 840 l0 -40 40 0 40 0 0 40 0 40 -40 0 -40 0 0 -40z"/>
<path d="M1360 2280 l0 -40 40 0 40 0 0 40 0 40 -40 0 -40 0 0 -40z"/>
<path d="M1760 2040 l0 -280 280 0 280 0 0 280 0 280 -280 0 -280 0 0 -280z
m480 0 l0 -200 -200 0 -200 0 0 200 0 200 200 0 200 0 0 -200z"/>
<path d="M1920 2040 l0 -120 120 0 120 0 0 120 0 120 -120 0 -120 0 0 -120z"/>
<path d="M2240 1560 l0 -40 -40 0 -40 0 0 -40 0 -40 80 0 80 0 0 80 0 80 -40
0 -40 0 0 -40z"/>
<path d="M320 600 l0 -280 280 0 280 0 0 280 0 280 -280 0 -280 0 0 -280z
m480 0 l0 -200 -200 0 -200 0 0 200 0 200 200 0 200 0 0 -200z"/>
<path d="M480 600 l0 -120 120 0 120 0 0 120 0 120 -120 0 -120 0 0 -120z"/>
<path d="M1520 520 l0 -40 40 0 40 0 0 -40 0 -40 -40 0 -40 0 0 -40 0 -40 120
0 120 0 0 40 0 40 -40 0 -40 0 0 40 0 40 40 0 40 0 0 40 0 40 -40 0 -40 0 0
-40 0 -40 -40 0 -40 0 0 40 0 40 -40 0 -40 0 0 -40z"/>
<path d="M2240 520 l0 -40 40 0 40 0 0 40 0 40 -40 0 -40 0 0 -40z"/>
<path d="M1840 360 l0 -40 40 0 40 0 0 40 0 40 -40 0 -40 0 0 -40z"/>
<path d="M2160 360 l0 -40 80 0 80 0 0 40 0 40 -80 0 -80 0 0 -40z"/>
</g>
</svg>
