<?xml version="1.0" standalone="no"?>
<!DOCTYPE svg PUBLIC "-//W3C//DTD SVG 20010904//EN"
 "http://www.w3.org/TR/2001/REC-SVG-20010904/DTD/svg10.dtd">
<svg version="1.0" xmlns="http://www.w3.org/2000/svg"
 width="256.000000pt" height="83.000000pt" viewBox="0 0 256.000000 83.000000"
 preserveAspectRatio="xMidYMid meet">

<g transform="translate(0.000000,83.000000) scale(0.100000,-0.100000)"
fill="#000000" stroke="none">
<path d="M20 410 c0 -373 0 -380 20 -380 20 0 20 7 20 380 0 373 0 380 -20
380 -20 0 -20 -7 -20 -380z"/>
<path d="M80 410 c0 -247 4 -380 10 -380 6 0 10 133 10 380 0 247 -4 380 -10
380 -6 0 -10 -133 -10 -380z"/>
<path d="M140 410 c0 -247 4 -380 10 -380 6 0 10 133 10 380 0 247 -4 380 -10
380 -6 0 -10 -133 -10 -380z"/>
<path d="M240 410 c0 -247 4 -380 10 -380 6 0 10 133 10 380 0 247 -4 380 -10
380 -6 0 -10 -133 -10 -380z"/>
<path d="M280 410 c0 -247 4 -380 10 -380 6 0 10 133 10 380 0 247 -4 380 -10
380 -6 0 -10 -133 -10 -380z"/>
<path d="M360 410 c0 -373 0 -380 20 -380 20 0 20 7 20 380 0 373 0 380 -20
380 -20 0 -20 -7 -20 -380z"/>
<path d="M460 410 c0 -247 4 -380 10 -380 6 0 10 133 10 380 0 247 -4 380 -10
380 -6 0 -10 -133 -10 -380z"/>
<path d="M520 410 c0 -373 0 -380 20 -380 20 0 20 7 20 380 0 373 0 380 -20
380 -20 0 -20 -7 -20 -380z"/>
<path d="M580 410 l0 -380 30 0 30 0 0 380 0 380 -30 0 -30 0 0 -380z"/>
<path d="M680 410 c0 -247 4 -380 10 -380 6 0 10 133 10 380 0 247 -4 380 -10
380 -6 0 -10 -133 -10 -380z"/>
<path d="M720 410 l0 -380 30 0 30 0 0 380 0 380 -30 0 -30 0 0 -380z"/>
<path d="M800 410 l0 -380 40 0 40 0 0 380 0 380 -40 0 -40 0 0 -380z"/>
<path d="M900 410 c0 -373 0 -380 20 -380 20 0 20 7 20 380 0 373 0 380 -20
380 -20 0 -20 -7 -20 -380z"/>
<path d="M960 410 c0 -373 0 -380 20 -380 20 0 20 7 20 380 0 373 0 380 -20
380 -20 0 -20 -7 -20 -380z"/>
<path d="M1040 410 c0 -373 0 -380 20 -380 20 0 20 7 20 380 0 373 0 380 -20
380 -20 0 -20 -7 -20 -380z"/>
<path d="M1120 410 c0 -373 0 -380 20 -380 20 0 20 7 20 380 0 373 0 380 -20
380 -20 0 -20 -7 -20 -380z"/>
<path d="M1200 410 c0 -247 4 -380 10 -380 6 0 10 133 10 380 0 247 -4 380
-10 380 -6 0 -10 -133 -10 -380z"/>
<path d="M1280 410 c0 -247 4 -380 10 -380 6 0 10 133 10 380 0 247 -4 380
-10 380 -6 0 -10 -133 -10 -380z"/>
<path d="M1340 410 c0 -247 4 -380 10 -380 6 0 10 133 10 380 0 247 -4 380
-10 380 -6 0 -10 -133 -10 -380z"/>
<path d="M1380 410 l0 -380 40 0 40 0 0 380 0 380 -40 0 -40 0 0 -380z"/>
<path d="M1480 410 l0 -380 30 0 30 0 0 380 0 380 -30 0 -30 0 0 -380z"/>
<path d="M1560 410 c0 -247 4 -380 10 -380 6 0 10 133 10 380 0 247 -4 380
-10 380 -6 0 -10 -133 -10 -380z"/>
<path d="M1620 410 c0 -373 0 -380 20 -380 20 0 20 7 20 380 0 373 0 380 -20
380 -20 0 -20 -7 -20 -380z"/>
<path d="M1680 410 l0 -380 30 0 30 0 0 380 0 380 -30 0 -30 0 0 -380z"/>
<path d="M1780 410 l0 -380 30 0 30 0 0 380 0 380 -30 0 -30 0 0 -380z"/>
<path d="M1860 410 c0 -373 0 -380 20 -380 20 0 20 7 20 380 0 373 0 380 -20
380 -20 0 -20 -7 -20 -380z"/>
<path d="M1960 410 c0 -247 4 -380 10 -380 6 0 10 133 10 380 0 247 -4 380
-10 380 -6 0 -10 -133 -10 -380z"/>
<path d="M2000 410 c0 -247 4 -380 10 -380 6 0 10 133 10 380 0 247 -4 380
-10 380 -6 0 -10 -133 -10 -380z"/>
<path d="M2060 410 l0 -380 30 0 30 0 0 380 0 380 -30 0 -30 0 0 -380z"/>
<path d="M2160 410 c0 -373 0 -380 20 -380 20 0 20 7 20 380 0 373 0 380 -20
380 -20 0 -20 -7 -20 -380z"/>
<path d="M2220 410 c0 -373 0 -380 20 -380 20 0 20 7 20 380 0 373 0 380 -20
380 -20 0 -20 -7 -20 -380z"/>
<path d="M2320 410 l0 -380 30 0 30 0 0 380 0 380 -30 0 -30 0 0 -380z"/>
<path d="M2400 410 c0 -247 4 -380 10 -380 6 0 10 133 10 380 0 247 -4 380
-10 380 -6 0 -10 -133 -10 -380z"/>
<path d="M2440 410 c0 -373 0 -380 20 -380 20 0 20 7 20 380 0 373 0 380 -20
380 -20 0 -20 -7 -20 -380z"/>
</g>
</svg>
